<svg width="600" height="152" viewBox="0 0 600 152" fill="none" xmlns="http://www.w3.org/2000/svg">
<path d="M592.084 9.6483C593.197 9.40091 594.063 8.28765 594.063 7.17439C594.063 4.57677 591.218 4.57676 590.476 4.57676H586.765V15.0909H588.25V10.3904H590.105C591.837 10.3904 592.208 10.8852 592.332 12.3696C592.455 13.2355 592.579 14.225 592.826 15.0909H594.311C593.94 13.9777 593.816 12.8644 593.692 11.7511C593.569 10.3905 593.197 9.89569 592.084 9.6483ZM590.476 8.90612H588.25V5.56632H590.476C591.218 5.56632 592.579 5.56631 592.579 7.29805C592.579 9.02979 591.218 8.90612 590.476 8.90612ZM590.229 0C584.786 0 580.457 4.32935 580.457 9.77197C580.457 15.2146 584.786 19.544 590.229 19.544C595.671 19.544 600.001 15.2146 600.001 9.77197C600.001 4.32935 595.671 0 590.229 0ZM590.229 18.5544C585.405 18.5544 581.57 14.7198 581.446 9.89567C581.446 5.07153 585.281 1.23695 590.105 1.11326C594.929 1.11326 598.764 4.94783 598.887 9.77197C598.887 14.5961 595.053 18.5544 590.229 18.5544Z" fill="black"/>
<path d="M50.3191 151.467H0V4.88672H50.3191V58.2767H125.081V4.88672H173.941V151.467H125.081V94.1936H50.3191V151.467Z" fill="#16243F"/>
<path d="M243.837 151.467H193.485V4.88672H266.444L301.464 100.989L335.511 4.88672H408.469V151.467H358.857L357.885 57.306L323.837 151.467H279.09L243.837 57.306V151.467Z" fill="#16243F"/>
<path d="M574.593 151.467H428.459V4.88672H572.592V38.4941H477.938V59.6353H566.832V93.2229H477.817V118.124H574.593V151.467Z" fill="#16243F"/>
</svg>
